<svg xmlns="http://www.w3.org/2000/svg" viewBox="0 0 128 128" role="img" aria-labelledby="title desc">
  <title id="title">EdTech analytics logo</title>
  <desc id="desc">A student in a graduation cap rising from an open book beside an upward analytics arrow.</desc>
  <defs>
    <linearGradient id="background" x1="12" y1="8" x2="116" y2="120" gradientUnits="userSpaceOnUse">
      <stop stop-color="#102e68"/>
      <stop offset=".52" stop-color="#07527a"/>
      <stop offset="1" stop-color="#08a7a0"/>
    </linearGradient>
    <linearGradient id="accent" x1="52" y1="95" x2="104" y2="55" gradientUnits="userSpaceOnUse">
      <stop stop-color="#29d5cf"/>
      <stop offset="1" stop-color="#a7ff9c"/>
    </linearGradient>
    <linearGradient id="page" x1="22" y1="91" x2="80" y2="108" gradientUnits="userSpaceOnUse">
      <stop stop-color="#e8f7ff"/>
      <stop offset="1" stop-color="#fff"/>
    </linearGradient>
    <filter id="shadow" x="-20%" y="-20%" width="140%" height="150%">
      <feDropShadow dx="0" dy="3" stdDeviation="2.5" flood-color="#04152f" flood-opacity=".38"/>
    </filter>
  </defs>

  <rect width="128" height="128" rx="27" fill="url(#background)"/>
  <path d="M8 82c18-23 37-29 59-27 23 2 38-5 53-20v58c-18 14-41 20-63 17C35 107 20 111 8 120Z" fill="#061c4d" opacity=".2"/>

  <g filter="url(#shadow)" fill="#fff">
    <path d="M38 36 64 23l26 13-26 13Z"/>
    <path d="M46 40h36v14c-9 6-27 6-36 0Z"/>
    <path d="M85 37v22" fill="none" stroke="#fff" stroke-width="2.5" stroke-linecap="round"/>
    <circle cx="85" cy="61" r="3"/>
    <path d="M83 64h4l2 10c-2 3-6 3-8 0Z"/>
    <circle cx="64" cy="61" r="10"/>
    <path d="M48 86c2-12 9-19 16-19s14 7 16 19l-16 13Z"/>
  </g>

  <g fill="url(#accent)">
    <rect x="76" y="76" width="8" height="16" rx="2"/>
    <rect x="87" y="68" width="8" height="24" rx="2"/>
    <rect x="98" y="59" width="8" height="33" rx="2"/>
    <path d="M70 77c13-3 24-10 34-22l-5-1 11-7-1 13-4-4C94 69 83 76 70 80Z"/>
  </g>

  <g filter="url(#shadow)" fill="url(#page)" stroke="#fff" stroke-linejoin="round">
    <path d="m17 99 19-24c10-1 20 2 28 9v15c-15-8-30-8-47 0Z" stroke-width="1.5"/>
    <path d="m111 99-19-24c-10-1-20 2-28 9v15c15-8 30-8 47 0Z" stroke-width="1.5"/>
    <path d="M17 99c17-8 32-8 47 0 15-8 30-8 47 0" fill="none" stroke-width="2.5"/>
    <path d="M25 88c14-5 26-3 39 4M103 88c-14-5-26-3-39 4" fill="none" stroke="#1ca8c6" stroke-width="2"/>
  </g>
</svg>
